<svg aria-hidden="true" style="position:absolute;width:0;height:0" xmlns="http://www.w3.org/2000/svg" overflow="hidden"><defs><symbol id="icon-close" viewBox="0 0 32 32"><path  fill="var(--color1, #fff)" d="M32 16c0 8.837-7.163 16-16 16S0 24.837 0 16 7.163 0 16 0s16 7.163 16 16z"/><path fill="none" stroke="var(--color2, #000)" stroke-width="1.067" d="M31.467 16c0 8.542-6.925 15.467-15.467 15.467S.533 24.542.533 16C.533 7.458 7.458.533 16 .533S31.467 7.458 31.467 16z"/><path fill="var(--color2, #000)" d="M22.4 10.782L21.218 9.6l-4.685 4.685L11.848 9.6l-1.182 1.182 4.685 4.685-4.685 4.685 1.182 1.182 4.685-4.685 4.685 4.685 1.182-1.182-4.685-4.685 4.685-4.685z"/></symbol><symbol id="icon-mail_form" viewBox="0 0 43 32"><path d="M37.333 0h-32c-2.2 0-3.981 1.8-3.981 4l-.019 24c0 2.2 1.8 4 4 4h32c2.2 0 4-1.8 4-4V4c0-2.2-1.8-4-4-4zm-.8 8.501l-14.139 8.837a2.02 2.02 0 01-2.129-.005l.009.005-14.141-8.84A1.7 1.7 0 117.94 5.621l-.006-.004 13.4 8.381 13.4-8.381a1.7 1.7 0 111.808 2.876l-.008.004z"/></symbol><symbol id="icon-name_form" viewBox="0 0 32 32"><path d="M16 16a8 8 0 000-16 8 8 0 000 16zm0 4c-5.339 0-16 2.68-16 8v2c0 1.099.901 2 2 2h28c1.099 0 2-.901 2-2v-2c0-5.32-10.661-8-16-8z"/></symbol><symbol id="icon-phone_form" viewBox="0 0 32 32"><path d="M27.419 20.853l-4.201-.48a3.28 3.28 0 00-2.713.941l-3.045 3.045c-4.718-2.435-8.467-6.185-10.835-10.764l-.065-.139L9.623 10.4a3.282 3.282 0 00.942-2.729l.002.016-.48-4.169A3.314 3.314 0 006.8.592H3.932C2.062.587.508 2.142.622 4.009 1.5 18.135 12.796 29.417 26.908 30.295c1.867.114 3.424-1.44 3.424-3.31v-2.862-.016a3.279 3.279 0 00-2.897-3.256l-.015-.001z"/></symbol></defs></svg>